#!OML:ASF E:\id_vita\Project 1\Capture day 1\Session 1\Female.ASF
:FULLY-SPECIFIED
:DEGREES
307
root 11.7639 16.3042 0.467159 667.358 85.6509 651.156
lowerback -13.8277 3.41885 -0.631175
upperback -3.42715 4.75912 0.111633
thorax 4.05401 2.41435 1.2834
lowerneck 1.90623 -2.3308 -6.6277
upperneck 10.112 -3.57363 8.86126
head 2.94962 -1.63635 3.7079
rclavicle 2.25124e-014 -7.15625e-015
rhumerus -9.27964 -5.54923 -88.2878
rradius 32.1813
rwrist 2.01676
rhand -20.9561 7.92424
rfingers 7.12502
rthumb 5.41677 -21.9865
lclavicle 2.25124e-014 -7.15625e-015
lhumerus -89.6339 43.4185 2.09364
lradius 12.9049
lwrist -75.8638
lhand -4.98971 24.7749
lfingers 7.12502
lthumb 20.8033 53.6796
rfemur 3.21095 8.10769 29.4745
rtibia 14.1131
rfoot -6.15358 -5.66063
rtoes -19.2159
lfemur -46.9203 -15.9594 -2.54834
ltibia 12.8896
lfoot -13.0468 20.6194
ltoes -9.02864
308
root 11.9697 16.2789 0.453004 668.295 85.4964 652.065
lowerback -14.0003 3.4552 -0.574488
upperback -3.43549 4.80027 0.138089
thorax 4.14022 2.43467 1.29818
lowerneck 2.11404 -2.2562 -6.39606
upperneck 9.77814 -3.45904 8.71023
head 2.80125 -1.58698 3.62728
rclavicle 1.1281e-014 -7.15625e-015
rhumerus -9.48054 -5.66953 -88.4943
rradius 32.1725
rwrist 1.86284
rhand -21.0492 7.96632
rfingers 7.12502
rthumb 5.32688 -21.9467
lclavicle 1.1281e-014 -7.15625e-015
lhumerus -94.0788 43.7057 -4.4298
lradius 12.684
lwrist -80.4627
lhand -5.76728 24.6826
lfingers 7.12502
lthumb 20.0561 53.6675
rfemur 3.8349 8.26269 29.504
rtibia 14.233
rfoot -5.7004 -5.09196
rtoes -17.8839
lfemur -46.5308 -14.7474 -3.62696
ltibia 13.2002
lfoot -13.5586 19.225
ltoes -8.35665
309
root 12.1807 16.2501 0.436869 669.201 85.5447 653.033
lowerback -14.0123 3.46772 -0.654992
upperback -3.51372 4.83284 0.106256
thorax 4.06003 2.45303 1.31267
lowerneck 2.11219 -2.27593 -6.34083
upperneck 9.83546 -3.48132 8.63015
head 2.81852 -1.59728 3.59305
rclavicle -5.57591e-014 6.36111e-015
rhumerus -9.92267 -5.86868 -88.6454
rradius 32.192
rwrist 1.71018
rhand -21.1008 7.89998
rfingers 7.12502
rthumb 5.27705 -22.0143
lclavicle -5.57591e-014 6.36111e-015
lhumerus -97.7686 43.4651 -9.8936
lradius 12.578
lwrist -84.445
lhand -6.2096 24.8995
lfingers 7.12502
lthumb 19.6309 53.9283
rfemur 4.54549 8.21205 29.3755
rtibia 14.4256
rfoot -5.20702 -4.66108
rtoes -18.0785
lfemur -46.0645 -13.5941 -5.03306
ltibia 13.7408
lfoot -13.2891 17.6766
ltoes -9.16459
310
root 12.3956 16.223 0.41634 670.68 85.6284 654.478
lowerback -14.0852 3.45758 -0.759789
upperback -3.63197 4.84054 0.0964642
thorax 3.9673 2.46048 1.36192
lowerneck 2.10175 -2.32675 -6.43758
upperneck 9.88497 -3.55159 8.63259
head 2.84218 -1.63457 3.60813
rclavicle 3.73715e-014 1.82882e-014
rhumerus -10.4752 -6.11718 -88.7497
rradius 32.1056
rwrist 1.75965
rhand -21.2206 8.07875
rfingers 7.12502
rthumb 5.16136 -21.8384
lclavicle 3.73715e-014 1.82882e-014
lhumerus -99.9556 43.1008 -13.0911
lradius 12.5033
lwrist -86.8421
lhand -6.24904 25.5024
lfingers 7.12502
lthumb 19.5929 54.5351
rfemur 5.24942 7.97967 29.1234
rtibia 14.4765
rfoot -4.67162 -3.97094
rtoes -18.9009
lfemur -45.8064 -12.465 -6.45849
ltibia 14.648
lfoot -12.4094 16.2628
ltoes -11.1992
311
root 12.6171 16.2003 0.395279 670.476 85.6775 654.253
lowerback -14.2822 3.38571 -0.787845
upperback -3.68869 4.75349 0.12321
thorax 4.0118 2.41873 1.40207
lowerneck 2.37359 -2.22043 -6.62053
upperneck 9.55586 -3.43187 8.9849
head 2.6971 -1.58174 3.75244
rclavicle -5.04168e-014 -9.93923e-015
rhumerus -11.0214 -6.40801 -88.933
rradius 31.9384
rwrist 1.94998
rhand -21.2552 8.30738
rfingers 7.12502
rthumb 5.12796 -21.6106
lclavicle -5.04168e-014 -9.93923e-015
lhumerus -101.862 42.8162 -15.8072
lradius 12.4399
lwrist -88.754
lhand -6.32491 26.1111
lfingers 7.12502
lthumb 19.52 55.1512
rfemur 6.00595 7.599 28.9566
rtibia 14.3987
rfoot -3.95606 -2.95583
rtoes -18.8094
lfemur -45.6428 -11.4796 -7.66065
ltibia 15.8309
lfoot -12.1155 14.7571
ltoes -11.9967
312
root 12.8434 16.1774 0.374937 669.326 85.7043 653.125
lowerback -14.4557 3.33735 -0.765292
upperback -3.77357 4.69285 0.111865
thorax 4.02062 2.39144 1.37572
lowerneck 2.20396 -2.24872 -6.1917
upperneck 9.97699 -3.44592 8.57119
head 2.83953 -1.57377 3.55261
rclavicle -1.08586e-014 6.36111e-015
rhumerus -11.7158 -6.77749 -89.1205
rradius 31.8314
rwrist 2.09455
rhand -20.9858 8.13143
rfingers 7.12502
rthumb 5.38801 -21.7801
lclavicle -1.08586e-014 6.36111e-015
lhumerus -103.713 42.453 -18.6262
lradius 12.3531
lwrist -90.9163
lhand -6.39068 26.227
lfingers 7.12502
lthumb 19.4568 55.2735
rfemur 6.80968 7.12174 28.8487
rtibia 14.2387
rfoot -2.95712 -1.84591
rtoes -19.0677
lfemur -45.5327 -10.7368 -8.59881
ltibia 17.2195
lfoot -12.2619 13.3772
ltoes -11.1638
313
root 13.0731 16.159 0.352653 670.587 85.7379 654.293
lowerback -14.7836 3.30735 -0.884065
upperback -3.87865 4.68016 0.111324
thorax 4.07794 2.3875 1.45727
lowerneck 2.0502 -2.28166 -5.8396
upperneck 10.0195 -3.42561 7.95728
head 3.19509 -1.58443 3.65206
rclavicle -1.9543e-014 -1.11319e-014
rhumerus -12.3574 -6.89637 -89.2001
rradius 31.5888
rwrist 2.13458
rhand -20.7102 8.05128
rfingers 7.12502
rthumb 5.65414 -21.8533
lclavicle -1.9543e-014 -1.11319e-014
lhumerus -105.684 42.0331 -21.5093
lradius 12.3289
lwrist -93.1991
lhand -6.15971 26.2037
lfingers 7.12502
lthumb 19.6788 55.2276
rfemur 7.50119 6.67466 28.5502
rtibia 14.0079
rfoot -1.9173 -0.663347
rtoes -20.3693
lfemur -45.591 -10.0257 -9.53834
ltibia 18.7575
lfoot -11.8607 12.4712
ltoes -11.9615
314
root 13.3104 16.1539 0.325808 671.956 85.8645 655.541
lowerback -15.2241 3.19168 -1.03953
upperback -3.98552 4.56222 0.126294
thorax 4.19252 2.33107 1.56417
lowerneck 2.07434 -2.20646 -5.84567
upperneck 10.1249 -3.32669 7.95241
head 3.21898 -1.53383 3.65554
rclavicle -1.49461e-014 7.15625e-015
rhumerus -13.0306 -6.89255 -89.2991
rradius 31.2355
rwrist 2.36666
rhand -20.5344 8.41692
rfingers 7.12502
rthumb 5.82391 -21.483
lclavicle -1.49461e-014 7.15625e-015
lhumerus -107.573 41.5217 -24.1029
lradius 12.3754
lwrist -95.1109
lhand -5.76582 26.4005
lfingers 7.12502
lthumb 20.0575 55.3852
rfemur 8.09639 6.14792 28.1016
rtibia 13.8667
rfoot -0.843699 0.701582
rtoes -21.2771
lfemur -45.775 -9.47338 -10.4961
ltibia 20.3285
lfoot -11.1962 11.8089
ltoes -13.3845
315
root 13.5507 16.1548 0.297924 672.315 86.0481 655.799
lowerback -15.6154 3.04926 -1.14742
upperback -4.15314 4.40652 0.111748
thorax 4.22369 2.25924 1.59984
lowerneck 2.43968 -2.10385 -6.08709
upperneck 10.2587 -3.26399 8.59235
head 2.869 -1.4748 3.54996
rclavicle -1.3741e-014 1.43125e-014
rhumerus -13.9271 -7.22883 -89.4197
rradius 30.9985
rwrist 2.89321
rhand -20.0613 8.67385
rfingers 7.12502
rthumb 6.28066 -21.213
lclavicle -1.3741e-014 1.43125e-014
lhumerus -108.985 40.9392 -26.0781
lradius 12.4196
lwrist -96.6293
lhand -5.5303 26.7207
lfingers 7.12502
lthumb 20.2838 55.6816
rfemur 8.49699 5.50689 27.6284
rtibia 14.0836
rfoot 0.39608 2.20933
rtoes -20.8609
lfemur -46.0704 -9.191 -11.2748
ltibia 21.8824
lfoot -10.5332 11.2188
ltoes -14.1717
316
root 13.786 16.1566 0.269904 672.208 86.3727 655.597
lowerback -15.8603 2.90263 -1.372
upperback -4.34715 4.26529 0.0619314
thorax 4.14217 2.19643 1.65497
lowerneck 2.96173 -2.06888 -6.11271
upperneck 9.79222 -3.18481 8.39579
head 2.94759 -1.47733 3.86898
rclavicle 1.23495e-014 4.37326e-015
rhumerus -14.8648 -7.83941 -89.4343
rradius 30.7738
rwrist 3.40558
rhand -19.3337 8.61436
rfingers 7.12502
rthumb 6.983 -21.2505
lclavicle 1.23495e-014 4.37326e-015
lhumerus -109.676 40.5453 -27.04
lradius 12.4259
lwrist -97.4561
lhand -5.51151 27.1545
lfingers 7.12502
lthumb 20.3019 56.1134
rfemur 8.60424 4.75474 27.0567
rtibia 14.8086
rfoot 1.72607 3.64505
rtoes -19.9519
lfemur -46.358 -8.88402 -12.2139
ltibia 23.4463
lfoot -10.4424 9.76651
ltoes -13.8297
317
root 14.0191 16.1643 0.241282 673.082 86.961 656.295
lowerback -16.0837 2.71316 -1.83441
upperback -4.57248 4.11292 -0.082772
thorax 4.00742 2.12976 1.73879
lowerneck 3.29387 -2.02571 -6.01086
upperneck 9.83375 -3.12947 8.35179
head 2.89158 -1.44974 3.83596
rclavicle -1.21538e-014 -3.57812e-015
rhumerus -15.8249 -8.50827 -89.4032
rradius 30.4315
rwrist 3.78595
rhand -18.7569 8.70063
rfingers 7.12502
rthumb 7.53984 -21.145
lclavicle -1.21538e-014 -3.57812e-015
lhumerus -109.63 40.4302 -26.9853
lradius 12.3577
lwrist -97.4785
lhand -5.67424 27.4378
lfingers 7.12502
lthumb 20.1455 56.4132
rfemur 8.29662 3.86636 26.2011
rtibia 16.0582
rfoot 3.16348 5.11053
rtoes -18.4127
lfemur -46.5623 -8.5197 -13.5192
ltibia 24.9921
lfoot -10.8418 7.96014
ltoes -13.1817
318
root 14.2542 16.1765 0.214526 679.166 87.6497 662.12
lowerback -16.4977 2.5472 -2.49725
upperback -4.75823 4.03681 -0.322136
thorax 4.00694 2.09849 1.86254
lowerneck 2.66764 -2.21423 -5.92642
upperneck 10.9384 -3.42873 8.56833
head 3.04357 -1.5353 3.51749
rclavicle 2.75969e-015 1.47101e-014
rhumerus -16.7992 -9.40823 -89.3619
rradius 30.043
rwrist 4.35214
rhand -18.4442 8.96635
rfingers 7.12502
rthumb 7.84162 -20.8682
lclavicle 2.75969e-015 1.47101e-014
lhumerus -109.904 40.466 -27.4079
lradius 12.33
lwrist -98.0383
lhand -5.66142 27.3659
lfingers 7.12502
lthumb 20.1578 56.3401
rfemur 7.59935 2.89685 25.0541
rtibia 17.723
rfoot 5.22302 6.7781
rtoes -14.0227
lfemur -46.7201 -8.25434 -14.9271
ltibia 26.4711
lfoot -11.5714 6.31484
ltoes -11.8228
319
root 14.4881 16.1897 0.187161 687.041 88.2719 669.798
lowerback -17.0057 2.39954 -3.08638
upperback -4.82115 3.97718 -0.518582
thorax 4.1876 2.06859 2.00243
lowerneck 2.6983 -2.26232 -6.187
upperneck 10.8692 -3.52907 9.03144
head 3.0348 -1.5805 3.70164
rclavicle -3.22404e-015 -1.55052e-014
rhumerus -17.7322 -10.3827 -89.2138
rradius 29.6001
rwrist 4.98361
rhand -18.2944 9.10668
rfingers 7.12502
rthumb 7.98622 -20.7224
lclavicle -3.22404e-015 -1.55052e-014
lhumerus -112.093 40.1497 -30.5666
lradius 12.354
lwrist -100.937
lhand -5.08333 27.0758
lfingers 7.12502
lthumb 20.7133 55.9904
rfemur 6.77192 1.73992 23.9362
rtibia 19.6108
rfoot 6.80872 7.93269
rtoes -12.8046
lfemur -46.8303 -8.16925 -16.1349
ltibia 27.8737
lfoot -12.2259 4.78548
ltoes -10.586
320
root 14.7136 16.1976 0.159769 686.66 88.8726 669.359
lowerback -17.3191 2.19034 -3.45723
upperback -4.82364 3.7879 -0.60065
thorax 4.34295 1.97271 2.10465
lowerneck 2.29332 -2.42336 -6.05736
upperneck 11.3248 -3.7201 8.64921
head 3.24603 -1.66662 3.55352
rclavicle 7.03216e-014 1.23246e-014
rhumerus -18.64 -11.0827 -89.0164
rradius 29.0756
rwrist 5.45163
rhand -18.1861 9.3392
rfingers 7.12502
rthumb 8.09075 -20.4859
lclavicle 7.03216e-014 1.23246e-014
lhumerus -115.493 39.2791 -35.4345
lradius 12.4049
lwrist -105.311
lhand -4.30829 26.3186
lfingers 7.12502
lthumb 21.4579 55.1502
rfemur 5.99772 0.423061 23.1158
rtibia 21.622
rfoot 9.10848 9.13923
rtoes -9.37745
lfemur -46.8205 -8.24601 -17.0216
ltibia 29.1682
lfoot -12.4727 3.41691
ltoes -9.28641
